<?xml version="1.0" encoding="UTF-8"?>
<svg id="Layer_1" xmlns="http://www.w3.org/2000/svg" version="1.1" viewBox="0 0 339.4 144">
  <!-- Generator: Adobe Illustrator 29.2.1, SVG Export Plug-In . SVG Version: 2.1.0 Build 116)  -->
  <path d="M59.5-.5c6.2,1.2,12.2,2.8,17.8,6,11.6,6.6,20.1,18.1,22.4,31.3s.3,8.7,1.4,13c2.1,7.9,11.9,19.1,10.1,27.1s-7.6,5.6-11.4,5.1v19.9c0,.5-2.8,4.2-3.3,4.8-2.1,2-6,4.2-8.9,4.5-5.3.6-17.4-2.5-18.5,4.6s.8,15.3,0,22.1-3.2,2.6-6.3,2.4c-8.4-2.7-16.9-5.8-25.4-8.2s-15.5-1.8-16.3-6.7,1.9-16.1,1.9-23-2.8-14.4-7.7-20.6-9.7-15.2-11.5-25.2c.4-4.6-.5-9.9,0-14.4C6,21.8,25.5,1.6,46.1-.5h13.4ZM25.4,84.5c1.2,2.6,2.3,5.5,2.9,8.3,2.1,9.1.4,14.8,0,23.6s-.2,6.8.2,7.5l34.1,10c1.7-.4.3-7.4.3-8.8-.1-5.9-.5-15.3,5.6-18.4,6.8-3.5,20.9,2.9,24.7-6s.3-13.9.9-19.3,2.2-4.9,6.1-5.5,5.1.5,5.4-.8-9.2-16.9-10.3-20.4c-2.6-8.2-.4-16.2-4.5-24.8-6-12.5-17.4-20.9-31.2-23.1C29.7,2.1,4.9,29.4,11.3,58.6l24.9-.5c1.5-.3,3-4.9,6.8-5.7,14.7-3,15.5,18.6,1.8,17.7s-6.5-3.2-8.3-6.3c-5.7-.5-12.5.7-18.2,0s-3.7-1.6-6-1c-1.1,1.1,6.3,15.4,9.4,15.8l31.7.5c1.3-1.6,2.6-.6,4.1-1.2s1.5-3.3,4.3-4.3c10.2-3.8,17,8.1,9.8,14.6s-11.6,1.1-15.3-3.8h-31ZM43.3,63.7c3.2,3,8.9-3,4.5-5.7s-7.5,2.8-4.5,5.7ZM65.6,78.3c-3.9.6-2.5,7.3,1.7,6.1s1.5-6.6-1.7-6.1Z"/>
  <path d="M158.6,38.9c1.5.2,6.6,2.2,8.1,2.9,9.7,5.1,10.6,22-.2,26.1,7.7,3.2,10.3,8,9.6,16.3s-10,14.1-19.4,14.7c-9,.6-19.1-.1-28.1-.5l2.9-.5v-59h27.1ZM142.6,63.8h14.2c3.4,0,6.9-3.9,7-7.4s-3.7-7.9-6.5-7.9h-14.6v15.4ZM142.6,89.8h15.1c.3,0,5.3-2.8,5.8-3.3,2.8-3.1,1.8-10.1-1.5-12.4s-3.1-1.5-3.3-1.5h-16.1v17.3Z"/>
  <path d="M289.9,98.9h-10.6l.5-5.3c-4.6,4-8.7,6.6-15.1,6.3-17.2-.8-20.7-21.6-3.5-26.6s9.1-1,13.4-2c7.7-1.8,4.7-8.7-1.7-9.4s-8.5,1.1-9.4,5.8h-11.5c-.2-16.4,30.4-19.9,36.6-7.5.2.4,1.4,3.3,1.4,3.4v35.3ZM262.2,82.2c-2.7,3-.9,8.7,3.5,9.4,6.5,1,12.2-1.5,13.9-8.1s1.4-6.4-.3-6.1c-4.4,2.2-13.7,1.1-17.1,4.8Z"/>
  <path d="M231.8,98.9v-29.5c0-.1-1.2-2-1.4-2.4-3.2-4.2-10.7-4.8-14.1-.6-5.9,7.4-1.8,23.6-2.7,32.5h-10.8c-.7-.4-.7-1-.7-1.7-.6-5.2.5-10.7.5-15.8.1-9-.1-18.1,0-27.1,3.8-.9,7.4,0,11-.5l.2,5.3c7.1-9.5,23.5-7.3,28.2,3.5s1.3,3.8,1.3,4.4v31.2l-.7.7h-10.8Z"/>
  <path d="M334.1,66.7h-10.3c-.4,0-2-4.1-5.6-4.9s-12.2,1.8-8.3,6.4,23.6,1.8,25.6,15.7c2.9,20.1-38.5,21.9-38.3,1.6h11c.4,8.7,20.7,6.3,15.1-1.4s-17.4-3.5-22.3-8.9-3.9-10-1.5-14.5c6.4-12.3,34.3-10,34.6,6.1Z"/>
  <path d="M182.9,54.2c3.8-.9,7.4,0,11-.5-.5,14.7,1,29.3,0,43.9l-.7,1.2h-10.3v-44.6Z"/>
  <path d="M187.1,36.1c9.4-1.5,11.4,11.8,3.1,13.2s-11.1-11.9-3.1-13.2Z"/>
  <path d="M21.6,43.7c-.5-.5,4.5-5.5,5.1-5.7,2.1-.6,7.4,0,10,0s2.2-.5,3.3-.5c5.6-.2,11.2.2,16.7,0,2.1-3.3,4.1-5.5,8.3-5.8,12.3-.9,13.5,19.9-1.4,17.7s-5-3.8-7.7-5.7H21.6ZM64.7,36.6c-4.8,1-2.9,8.7,1.9,6.8s2.5-7.7-1.9-6.8Z"/>
</svg>