<?xml version="1.0" encoding="UTF-8"?>
<svg id="Layer_1" xmlns="http://www.w3.org/2000/svg" version="1.1" viewBox="0 0 339.4 144">
  <!-- Generator: Adobe Illustrator 29.2.1, SVG Export Plug-In . SVG Version: 2.1.0 Build 116)  -->
  <path d="M132.2,44.6c.2-.6-.3-5,0-5h25.8c1.4,0,8,2.3,9.4,3.1,8.5,4.9,9.6,18.9,1.3,24.7-.9.6-2.3.4-2.5,1.3,4.9,1.1,9.6,5.6,10,10.7,1.1,11.7-4.7,17.8-16,19.3-8.8.2-17.8.3-26.7,0s-.2-.2-.3-.5c-.3,0-.5,0-.5,0-.2-19.1-.3-39,.5-57.9-.2,1.4-.3,2.9-.4,4.4h-.6Z" fill="#fff"/>
  <path d="M289.2,62.1c.8,12,1,24,.5,36,0,.3,0,.5-.2.5-2.6.2-6.7.2-8.8-.5-.1-1.4-.3-2.9-.5-4.5l-5.8,4.4c-9.9,5-25.2,0-23.6-13.1.9-7.2,7.5-10.3,13.9-11.6s13.6-.5,14.8-4.2c2.3-7.3-11.5-9.9-15.1-3.6-.5.9-.6,2.5-.7,2.5h-11c.3-16.8,31.4-19.5,36.5-6Z" fill="#fff"/>
  <path d="M203.2,55.1c3.2-1.1,7.1-.2,10.5-.5l.2,6c7.3-11.4,25.7-8.1,29,5,.1.5.7,3.5.7,3.8v29c0,0-.7.8-.8.8h-10.2v-28.2c0-3.3-3.7-6.6-6.9-7.1-17.8-3-10.9,24.3-12.1,34.4,0,.3-.1.5-.2.5-2.9.2-7.3.2-9.8-.5-.2,0-.4,0-.4,0,0-14,0-28.6.4-42.4,2.9-.4,6.5-.4,9.5,0-3.3-.2-6.6-.4-10-.5Z" fill="#fff"/>
  <path d="M334.2,67.1h-9.8c-.3,0-1.8-3.5-3.6-4.4-5.1-2.8-15,.5-11,6,4.3,5.9,21.9,2,25.3,14.2,5.5,20.4-36.6,23.7-37.5,3.2h10.5c.3,0,.9,3,3,4.2,3.1,1.8,12.4,2.3,13.4-2.1.8-3.4-.7-4.6-3.5-5.7-7.4-3.1-20.6-2.3-22.2-13.3-2.9-20.2,34.4-20.9,35.4-2.1Z" fill="#fff"/>
  <path d="M56.7,0c3.3,1.3,2.1,1.9-3.5,1.8-4.2.8-.8,4.3,2.1,4l.4,1.2-1.6.9c-26.9-.4-45.7,24-41.9,49.9,2.4-.6,4.9-.5,7,.7,3.4.3,6.9.4,10.4.3,1.5,2.6-1.1,5.2-4.2,4.9l-7.7.3c-.3.9-1.5,1.2-3.3,1.1,1.4,3.4,3.2,6.7,5.2,9.8l-.4,1.2c.8,1.7-1.5,7.3-3.5,5.5-.9-1.3-2.5-2.9-3.4-4.3C-9.6,42.6,15.6-2.3,56.7,0Z" fill="#fff"/>
  <path d="M93.2,37.6c-.6-2.8,2.8-9.6,5-6,2.3,6.9,1.9,8.9,2.5,15.7s7.1,15.2,10.1,23.4-2.5,12.3-10.6,11.3v17.8c0,4.7-6.1,10.2-10.5,11.2-3.1.3-6.4.5-9.5,0,0-1.2-.2-2.3-.7-3.4-1.8,0-3.3-1.2-1.3-2.1l.7-1c9.8.4,14.3,0,14.5-11l-.4-10.5c.5-8,4.7-8.1,11.6-8.1l-8.8-16.5c-2.6-5.6-3.4-13.4-3.4-19.6l.8-1.3Z" fill="#fff"/>
  <path d="M54.7,79.1c2.3.7-.2,2.5-2.1,2,.5,1.5.3,2.4-.4,3-8.9,0-17.7.1-26.5.5,2.4,1.3,4.2,7,4.7,9.9.9,9.5.7,19.1-.7,28.8l9.5,2.7.4,1.2c.2,1.1-.3,1.2-1.2,1.4.5,2.2.4,4.3-2.3,3.6-4.1-1.3-14.7-2-14.5-7.7.3-11.5,4.5-23.8-.7-34.8s-3.6-5.4-5.3-8c1.9-.3,2.2-4,3.5-5.5,1.1,0,2.2.6,3.4,2,9.5,0,19,0,28.5,0s1.2.1,1.8.3,1.2.4,1.8.6Z" fill="#fff"/>
  <path d="M183.7,55.1c3.2-1.1,7.1-.2,10.5-.5-.7,5.2,1,42.4-.5,44h-9.2s-.3-.5-.3-.5c-.4-13.7-.4-28.7,0-42.5,2.9-.4,6.5-.4,9.5,0-3.3-.2-6.6-.4-10-.5Z" fill="#fff"/>
  <path d="M78.2,105.6c-.4,1.8,1.4.6,1.9,1.1s2,4.2,0,4.4c-3,0-5.2.2-6.5.5-.3,0-2.2.9-2.5,1.2-1.1.8-1.3,2.5-2,2.8-.5,8-.5,15.9,0,23.5-1,4.2-9.1.2-11.5-.5-.6-.6-.5-.7,0-.2-2-.3-2-1.3-.1-3-.5-2,.8-2.6,4-1.8l.6-.6c0-4,0-7.9-.2-11.9-.1-6.4,1-13.8,8-15.9,2.2-.7,6.7-1.4,8.2.4Z" fill="#fff"/>
  <path d="M85.2,12.1l-.9.6c-1-1.9-4.7,2.5-2.8,3.2l-.3,1.2-1,.7c-6.7-5.3-14.6-8.7-23.3-9.6l-1.2-1.1c-2.1-1-3.5.2-4.9-2.3-2.5-4.5,4.7-4.3,7.4-3.7l-1.5-1c10.1.6,21.4,4.7,28.5,12Z" fill="#fff"/>
  <path d="M85.2,12.1c6.4,4.4,10.6,12.3,13,19.5l-1.2-.5c-1.7,1.9-3,4.1-3.8,6.5l-1.3-1.1c-2.1-6.6-5.7-12.6-10.7-17.7v-1.6c-.5-.5-2-2.1-2-2.2,0-.7,4.2-2.6,2.5-4.7.2-.2,3.1,1.7,3.5,2Z" fill="#fff"/>
  <path d="M39.7,127.1l1-.9c6.9,1.7,13.7,3.7,20.4,6.1l.6,1.2c-.7,1-2.7-.3-3,0s.1,1.5-.1,2.1-1.2,1.1-1.4,1.6c-.5,1.1,1.9.6.5,1.2-7.3-2-14.3-4.3-21.5-6.5,2.3-.2,1.7-3.9.5-5,1.2.8,2.8,0,3,0Z" fill="#fff"/>
  <path d="M188.1,36.7c7-1,10.4,9.1,4.1,12.1-9.5,4.6-13.6-10.7-4.1-12.1Z" fill="#fff"/>
  <path d="M132.2,44.6l.5-1.2v-3.3s.5,0,.5,0v58l27,.5c-9.2,1.2-18.7.2-28,.5v-54.5Z" fill="#fff"/>
  <path d="M203.2,55.1c2.7,0,5.5-.1,8.3,0s1.9-.4,1.7.5h-9.5v42.5h10c0,.4.2,1.1-.3,1-1.7-.3-10.3.7-10.6-.7l.4-43.3Z" fill="#fff"/>
  <path d="M183.7,55.1c2.7,0,5.5-.1,8.3,0s1.9-.4,1.7.5h-9.5v42.5c3,.3,6.6-.6,9.5.5-1.2,1.2-7.9.1-10,.5v-44Z" fill="#fff"/>
  <path d="M289.2,62.1c.2.5,1,3.1,1,3.2v33.8h-10c-.3,0,.2-4.8,0-5.5,1.1.5.3,3.5.5,4.5h9l-.5-36Z" fill="#fff"/>
  <path d="M69.2,115.6v23.5c-.8-.5-.5-1.9-.5-2.7,0-7,0-14,0-21,0-.6.5.3.5.2Z" fill="#fff"/>
  <path d="M89.7,111.1c-5.3,1.3-11.1-.3-16,.5l-.3-.5h6.8s9.5,0,9.5,0Z" fill="#fff"/>
  <path d="M143.2,89.6v-16.5h15.2c.2,0,2.6.9,2.9,1.1,4,2.3,5.3,9,2.1,12.5-.7.7-4.8,3-5.5,3h-14.8Z" fill="#fff"/>
  <path d="M143.2,64.1v-15h13.8c.7,0,3.8,1.8,4.5,2.5,3.3,3.4,2.7,8.7-1.3,11.2s-2.5,1.3-2.7,1.3h-14.2Z" fill="#fff"/>
  <path d="M280.2,78.1c.4,5.5-1.7,11.6-7.5,13.3s-11.6,0-10.9-5.9c.8-6.8,13.8-5.1,18.4-7.4Z" fill="#fff"/>
  <path d="M55.7,7.1c6.7.3,14.6,2.9,20.3,6.4s3.2,2.9,5.2,3.6c5.2,6.5,10.3,11.8,12,20.5s.1,11.9,2.5,18.3,10.2,18.4,10,19.5c-.4,1.9-9.1-1.2-11.1,3.9s1.8,17.3-1.9,22.6-9.3,3.5-14.5,3.7-3.6-.2-5.2,0c-14,1.5-8.8,18.9-9.8,28.5-.6,0-1-.4-1.5-.5-6.1-1.8-16.3-5.8-22-6.5l-11-3c0-11,3.3-21.4,0-32.2s-3.1-6.8-3-7.2c10.8-.6,21.6-.6,32.5,0l.6-.3c2.4,4.5,7.2,7.1,11.9,3.6,8.2-6.2-1.4-19.1-10.2-10.9-.7,2.3-4.2,4.3-5.7,2-10.7.4-21.5-.3-32.2,0-1-.2-2.6-2.1-3.3-3-1.7-2.2-5.2-8.6-6-11.3s3.5-.7,4.5-.7c6.7-.7,13.3-1,20-.8,4.6,9.8,19.4,5.9,15.4-4.8-2.8-7.8-12.1-5.3-15.5.8-6.1,0-12.3-.3-18.5-.8-2.5,0-5,0-7.5,0C6.4,31.2,27.7,5.6,55.7,7.1Z" fill="#fff"/>
  <path d="M17.7,64.1c4.4-1.5,11,1.7,11.5-5-.5-.5-8.7.7-10-.5,6,0,12.1,0,18.2,0,2.1-2.5,2.6-4.4,6.1-5.4,12-3.4,15.4,14.1,5.1,16.6-5.2,1.3-8.7-1.3-11.2-5.6-6.5,0-13.1-.2-19.7,0Z" fill="#fff"/>
  <path d="M58.2,84.6c-2-.2-4-.4-6-.5l-1-4c.5-.4,3.9,1,3.5-1,5.8-.2,2.9-1.2,6-3.7s10.2-2.4,12.8,2.2c5.2,9-6.9,17.7-13.6,10.1s-1.2-2.5-1.7-3Z" fill="#fff"/>
  <path d="M52.2,84.1c1.6,0,5.1-.4,6,.5H25.7c0-.8.7-.5,1.2-.5,7.3-.7,17.7-.1,25.3,0Z" fill="#fff"/>
  <path d="M55.2,38.1c.5-.9.5-2.2,1.5-3.3,6.6-7.3,18.8,1,13.6,10.1s-8.7,5.6-12.9,2.2-.3-3.3-5.2-3.5c-.7-.5-1.7-.8-3.1-.7-.3-.3.6-4.4,1.6-4.3,1.5,0,3-.3,4.5-.5Z" fill="#fff"/>
  <path d="M50.7,38.6c.2,1.5-.2,2.7-1,4h4s-1.5,1-1.5,1c-10-.4-20,.3-30,0l5-5c7.8-.2,15.7-.2,23.5,0Z" fill="#fff"/>
  <path d="M55.2,38.1c-.5.9-3.4.5-4.5.5-7.8.2-15.7-.1-23.5,0l28-.5Z" fill="#fff"/>
  <path d="M48.6,59.2c2.8,2.9-2.3,7.7-4.9,4.2s2-7.2,4.9-4.2Z" fill="#fff"/>
  <path d="M65.6,79.2c3.4-.9,5.1,4.4,1.8,5.3s-4.8-4.5-1.8-5.3Z" fill="#fff"/>
  <path d="M60.9,42.5c-3.6-3.6,5.2-7.2,4.9-1.6s-3.6,2.9-4.9,1.6Z" fill="#fff"/>
</svg>